<svg width="24" height="24" viewBox="0 0 24 24" fill="none" xmlns="http://www.w3.org/2000/svg">
<path d="M21.1667 3.2375H2.83333C1.82118 3.2375 1 4.06895 1 5.09375V18.7063C1 19.7311 1.82118 20.5625 2.83333 20.5625H21.1667C22.1788 20.5625 23 19.7311 23 18.7063V5.09375C23 4.06895 22.1788 3.2375 21.1667 3.2375ZM21.1667 18.7063H2.83333V5.09375H21.1667V18.7063ZM8.94444 11.9C10.2927 11.9 11.3889 10.7901 11.3889 9.425C11.3889 8.05989 10.2927 6.95 8.94444 6.95C7.59618 6.95 6.5 8.05989 6.5 9.425C6.5 10.7901 7.59618 11.9 8.94444 11.9ZM5.52222 16.85H12.3667C12.8403 16.85 13.2222 16.5174 13.2222 16.1075V15.365C13.2222 14.1352 12.0726 13.1375 10.6556 13.1375C10.2431 13.1375 9.94132 13.4469 8.94444 13.4469C7.91701 13.4469 7.66875 13.1375 7.23333 13.1375C5.81632 13.1375 4.66667 14.1352 4.66667 15.365V16.1075C4.66667 16.5174 5.04861 16.85 5.52222 16.85ZM14.75 14.375H19.0278C19.1958 14.375 19.3333 14.2358 19.3333 14.0656V13.4469C19.3333 13.2767 19.1958 13.1375 19.0278 13.1375H14.75C14.5819 13.1375 14.4444 13.2767 14.4444 13.4469V14.0656C14.4444 14.2358 14.5819 14.375 14.75 14.375ZM14.75 11.9H19.0278C19.1958 11.9 19.3333 11.7608 19.3333 11.5906V10.9719C19.3333 10.8017 19.1958 10.6625 19.0278 10.6625H14.75C14.5819 10.6625 14.4444 10.8017 14.4444 10.9719V11.5906C14.4444 11.7608 14.5819 11.9 14.75 11.9ZM14.75 9.425H19.0278C19.1958 9.425 19.3333 9.28578 19.3333 9.11563V8.49688C19.3333 8.32672 19.1958 8.1875 19.0278 8.1875H14.75C14.5819 8.1875 14.4444 8.32672 14.4444 8.49688V9.11563C14.4444 9.28578 14.5819 9.425 14.75 9.425Z" fill="currentColor"/>
</svg>
