<svg width="24" height="24" viewBox="0 0 24 24" fill="none" xmlns="http://www.w3.org/2000/svg">
<path d="M20.9467 6.06L12.28 2.06C12.1923 2.01939 12.0967 1.99835 12 1.99835C11.9033 1.99835 11.8078 2.01939 11.72 2.06L3.05336 6.06C2.93764 6.11356 2.8397 6.19917 2.77117 6.3067C2.70263 6.41423 2.66637 6.53916 2.66669 6.66667V18C2.66637 18.1275 2.70263 18.2524 2.77117 18.36C2.8397 18.4675 2.93764 18.5531 3.05336 18.6067L11.72 22.6067C11.8078 22.6473 11.9033 22.6683 12 22.6683C12.0967 22.6683 12.1923 22.6473 12.28 22.6067L20.9467 18.6067C21.0624 18.5531 21.1603 18.4675 21.2289 18.36C21.2974 18.2524 21.3337 18.1275 21.3334 18V6.66667C21.3337 6.53916 21.2974 6.41423 21.2289 6.3067C21.1603 6.19917 21.0624 6.11356 20.9467 6.06ZM12 9.93334L4.92669 6.66667L12 3.4L19.0734 6.66667L12 9.93334ZM20 17.5733L12.6667 20.96V11.0933L20 7.70667V17.5733Z" fill="currentColor"/>
</svg>
