<svg width="24" height="24" viewBox="0 0 24 24" fill="none" xmlns="http://www.w3.org/2000/svg">
<g clip-path="url(#clip0_769_4197)">
<path d="M6.69674 4.92893C6.20859 4.44078 5.41713 4.44078 4.92898 4.92893C4.44082 5.41709 4.44082 6.20854 4.92898 6.6967L10.2323 12L4.92898 17.3033C4.44082 17.7915 4.44082 18.5829 4.92898 19.0711C5.41713 19.5592 6.20859 19.5592 6.69674 19.0711L12 13.7678L17.3033 19.0711C17.7915 19.5592 18.583 19.5592 19.0711 19.0711C19.5593 18.5829 19.5593 17.7915 19.0711 17.3033L13.7678 12L19.0711 6.6967C19.5593 6.20854 19.5593 5.41709 19.0711 4.92893C18.583 4.44078 17.7915 4.44078 17.3033 4.92893L12 10.2322L6.69674 4.92893Z" fill="currentColor"/>
</g>
<defs>
<clipPath id="clip0_769_4197">
<rect width="24" height="24" fill="white"/>
</clipPath>
</defs>
</svg>
