<svg width="24" height="24" viewBox="0 0 24 24" fill="none" xmlns="http://www.w3.org/2000/svg">
<path d="M21.5278 4.5L15.375 10.5797V4.5H13.7566L7.875 10.4656V0.75H0.75V23.25H23.25V4.5H21.5278ZM21.75 21.75H2.25V2.25H6.375V12.375H8.09897L13.875 6.51647V12.375H15.6921L21.75 6.38906V21.75Z" fill="currentColor"/>
<path d="M6.375 15.375V15.75H7.875V14.25H6.375V15.375ZM6.375 17.625H7.875V19.125H6.375V17.625ZM10.125 15.375V15.75H11.625V14.25H10.125V15.375ZM10.125 17.625H11.625V19.125H10.125V17.625ZM13.875 15.375V15.75H15.375V14.25H13.875V15.375ZM13.875 17.625H15.375V19.125H13.875V17.625ZM17.625 14.25H19.125V15.75H17.625V14.25ZM17.625 17.625H19.125V19.125H17.625V17.625Z" fill="currentColor"/>
</svg>
