<svg width="23" height="24" viewBox="0 0 23 24" fill="none" xmlns="http://www.w3.org/2000/svg">
<path d="M5 16.3701C5.23147 18.9897 7.36634 20.8487 10.6163 21.0891V23H12.2476V21.0891C15.7979 20.8079 18 18.8294 18 15.9034C18 13.4049 16.5189 11.9591 13.3768 11.1451L12.2476 10.8513V4.87671C14.0024 5.04957 15.1864 5.99871 15.4851 7.41614H17.7842C17.5245 4.90186 15.3756 3.09786 12.2476 2.89829V1H10.6163V2.93757C7.58373 3.299 5.50205 5.25071 5.50205 7.897C5.50205 10.1819 7.01287 11.7989 9.66386 12.4809L10.6179 12.7354V19.0699C8.82086 18.8027 7.58373 17.8127 7.28501 16.3701H5ZM10.3035 10.3421C8.67228 9.92886 7.80113 9.04571 7.80113 7.80271C7.80113 6.31929 8.90219 5.224 10.6163 4.93014V10.4223L10.3035 10.3437V10.3421ZM12.7919 13.2839C14.8047 13.7914 15.6884 14.6337 15.6884 16.0637C15.6884 17.7876 14.3965 18.9363 12.2476 19.1107V13.1471L12.7919 13.2823V13.2839Z" fill="currentColor"/>
</svg>
