<svg width="24" height="24" viewBox="0 0 24 24" fill="currentColor" xmlns="http://www.w3.org/2000/svg">
<path d="M11.9999 12.5752C11.8666 12.5752 11.7416 12.5542 11.6249 12.5122C11.5082 12.4708 11.3999 12.4002 11.2999 12.3002L6.69989 7.70018C6.51656 7.51685 6.42089 7.28751 6.41289 7.01218C6.40423 6.73751 6.49989 6.50018 6.69989 6.30018C6.88323 6.11685 7.11656 6.02518 7.39989 6.02518C7.68323 6.02518 7.91656 6.11685 8.09989 6.30018L11.9999 10.1752L15.8999 6.30018C16.0832 6.11685 16.3122 6.02085 16.5869 6.01218C16.8622 6.00418 17.0999 6.10018 17.2999 6.30018C17.4832 6.48351 17.5749 6.71685 17.5749 7.00018C17.5749 7.28351 17.4832 7.51685 17.2999 7.70018L12.6999 12.3002C12.5999 12.4002 12.4916 12.4708 12.3749 12.5122C12.2582 12.5542 12.1332 12.5752 11.9999 12.5752V12.5752ZM11.9999 18.5752C11.8666 18.5752 11.7416 18.5542 11.6249 18.5122C11.5082 18.4708 11.3999 18.4002 11.2999 18.3002L6.69989 13.7002C6.51656 13.5168 6.42089 13.2875 6.41289 13.0122C6.40423 12.7375 6.49989 12.5002 6.69989 12.3002C6.88323 12.1168 7.11656 12.0252 7.39989 12.0252C7.68323 12.0252 7.91656 12.1168 8.09989 12.3002L11.9999 16.1752L15.8999 12.3002C16.0832 12.1168 16.3122 12.0208 16.5869 12.0122C16.8622 12.0042 17.0999 12.1002 17.2999 12.3002C17.4832 12.4835 17.5749 12.7168 17.5749 13.0002C17.5749 13.2835 17.4832 13.5168 17.2999 13.7002L12.6999 18.3002C12.5999 18.4002 12.4916 18.4708 12.3749 18.5122C12.2582 18.5542 12.1332 18.5752 11.9999 18.5752V18.5752Z" fill="currentColor"/>
</svg>
