<svg width="24" height="24" viewBox="0 0 24 24" fill="none" xmlns="http://www.w3.org/2000/svg">
<path d="M3.59375 14.5698C3.75122 14.5698 3.90224 14.6324 4.01359 14.7437C4.12494 14.8551 4.1875 15.0061 4.1875 15.1636V18.1323C4.1875 18.4473 4.31261 18.7493 4.53531 18.972C4.75801 19.1947 5.06006 19.3198 5.375 19.3198H19.625C19.9399 19.3198 20.242 19.1947 20.4647 18.972C20.6874 18.7493 20.8125 18.4473 20.8125 18.1323V15.1636C20.8125 15.0061 20.8751 14.8551 20.9864 14.7437C21.0978 14.6324 21.2488 14.5698 21.4062 14.5698C21.5637 14.5698 21.7147 14.6324 21.8261 14.7437C21.9374 14.8551 22 15.0061 22 15.1636V18.1323C22 18.7622 21.7498 19.3663 21.3044 19.8117C20.859 20.2571 20.2549 20.5073 19.625 20.5073H5.375C4.74511 20.5073 4.14102 20.2571 3.69562 19.8117C3.25022 19.3663 3 18.7622 3 18.1323V15.1636C3 15.0061 3.06256 14.8551 3.17391 14.7437C3.28526 14.6324 3.43628 14.5698 3.59375 14.5698V14.5698Z" fill="currentColor"/>
<path d="M12.9204 16.8891C12.8652 16.9444 12.7997 16.9883 12.7276 17.0182C12.6554 17.0482 12.5781 17.0636 12.5 17.0636C12.4219 17.0636 12.3446 17.0482 12.2724 17.0182C12.2003 16.9883 12.1348 16.9444 12.0796 16.8891L8.51714 13.3266C8.40565 13.2151 8.34301 13.0639 8.34301 12.9062C8.34301 12.7486 8.40565 12.5974 8.51714 12.4859C8.62863 12.3744 8.77984 12.3117 8.93751 12.3117C9.09518 12.3117 9.2464 12.3744 9.35789 12.4859L11.9063 15.0354L11.9063 4.59375C11.9063 4.43628 11.9688 4.28525 12.0802 4.1739C12.1915 4.06255 12.3425 4 12.5 4C12.6575 4 12.8085 4.06255 12.9199 4.1739C13.0312 4.28525 13.0938 4.43628 13.0938 4.59375L13.0938 15.0354L15.6421 12.4859C15.6973 12.4307 15.7629 12.3869 15.835 12.357C15.9071 12.3271 15.9844 12.3117 16.0625 12.3117C16.1406 12.3117 16.2179 12.3271 16.29 12.357C16.3621 12.3869 16.4277 12.4307 16.4829 12.4859C16.5381 12.5411 16.5819 12.6066 16.6118 12.6787C16.6416 12.7509 16.657 12.8282 16.657 12.9062C16.657 12.9843 16.6416 13.0616 16.6118 13.1338C16.5819 13.2059 16.5381 13.2714 16.4829 13.3266L12.9204 16.8891Z" fill="currentColor"/>
</svg>
