<svg width="24" height="24" viewBox="0 0 24 24" fill="none" xmlns="http://www.w3.org/2000/svg">
<path d="M2.57143 18.2857H5.71429V21.4286C5.71429 22.2929 6.42143 23 7.28571 23C8.15 23 8.85714 22.2929 8.85714 21.4286V16.7143C8.85714 15.85 8.15 15.1429 7.28571 15.1429H2.57143C1.70714 15.1429 1 15.85 1 16.7143C1 17.5786 1.70714 18.2857 2.57143 18.2857ZM5.71429 5.71429H2.57143C1.70714 5.71429 1 6.42143 1 7.28571C1 8.15 1.70714 8.85714 2.57143 8.85714H7.28571C8.15 8.85714 8.85714 8.15 8.85714 7.28571V2.57143C8.85714 1.70714 8.15 1 7.28571 1C6.42143 1 5.71429 1.70714 5.71429 2.57143V5.71429ZM16.7143 23C17.5786 23 18.2857 22.2929 18.2857 21.4286V18.2857H21.4286C22.2929 18.2857 23 17.5786 23 16.7143C23 15.85 22.2929 15.1429 21.4286 15.1429H16.7143C15.85 15.1429 15.1429 15.85 15.1429 16.7143V21.4286C15.1429 22.2929 15.85 23 16.7143 23ZM18.2857 5.71429V2.57143C18.2857 1.70714 17.5786 1 16.7143 1C15.85 1 15.1429 1.70714 15.1429 2.57143V7.28571C15.1429 8.15 15.85 8.85714 16.7143 8.85714H21.4286C22.2929 8.85714 23 8.15 23 7.28571C23 6.42143 22.2929 5.71429 21.4286 5.71429H18.2857Z" fill="currentColor"/>
</svg>
