<svg width="24" height="24" viewBox="0 0 24 24" fill="none" xmlns="http://www.w3.org/2000/svg">
<path d="M12 4.75C11.738 4.75 11.5377 4.894 11.2911 5.122L7.81336 8.38C7.61815 8.566 7.5 8.836 7.5 9.118C7.5 9.706 7.92123 10.12 8.35274 10.12C8.56849 10.12 8.78425 10.018 8.97945 9.832L12 7.036L15.0154 9.832C15.2158 10.018 15.4264 10.12 15.6473 10.12C16.0788 10.12 16.5 9.706 16.5 9.118C16.5 8.836 16.3818 8.566 16.1815 8.38L12.7089 5.122C12.4623 4.888 12.262 4.75 12 4.75ZM12 19.25C12.262 19.25 12.4623 19.106 12.7089 18.872L16.1815 15.62C16.3818 15.434 16.5 15.164 16.5 14.876C16.5 14.288 16.0788 13.874 15.6473 13.874C15.4264 13.874 15.2158 13.982 15.0154 14.162L12 16.958L8.97945 14.162C8.78425 13.982 8.56849 13.874 8.35274 13.874C7.92123 13.874 7.5 14.288 7.5 14.876C7.5 15.164 7.61815 15.434 7.81336 15.62L11.2911 18.872C11.5377 19.106 11.738 19.25 12 19.25Z" fill="#2D3540"/>
</svg>
