<svg width="24" height="24" viewBox="0 0 24 24" fill="none" xmlns="http://www.w3.org/2000/svg">
<mask id="path-1-inside-1_168_4014" fill="white">
<path d="M2.99998 9.73725C2.9975 9.88928 3.04129 10.0385 3.12554 10.1651C3.20979 10.2916 3.33052 10.3896 3.47173 10.446L10.6725 13.3267L13.5532 20.5282C13.6089 20.6675 13.705 20.7869 13.8292 20.871C13.9534 20.9551 14.1 21.0001 14.25 21H14.262C14.4139 20.9976 14.5615 20.9491 14.6852 20.861C14.809 20.7729 14.903 20.6493 14.955 20.5065L20.955 4.0065C21.0041 3.87227 21.0138 3.7268 20.983 3.58722C20.9523 3.44764 20.8822 3.31977 20.7812 3.21866C20.6802 3.11755 20.5523 3.04741 20.4128 3.01652C20.2732 2.98562 20.1277 2.99524 19.9935 3.04425L3.49348 9.04425C3.35065 9.09632 3.227 9.19053 3.13888 9.31441C3.05076 9.43829 3.00232 9.586 2.99998 9.738V9.73725Z" stroke="white"/>
</mask>
<path d="M2.99998 9.73725H4.49998L1.50018 9.71278L2.99998 9.73725ZM3.47173 10.446L4.02889 9.05332L4.02803 9.05297L3.47173 10.446ZM10.6725 13.3267L12.0652 12.7696L11.8264 12.1728L11.2296 11.9341L10.6725 13.3267ZM13.5532 20.5282L14.9462 19.9718L14.9459 19.9711L13.5532 20.5282ZM14.25 21V19.5H14.2494L14.25 21ZM14.262 21V22.5H14.2738L14.2856 22.4998L14.262 21ZM14.955 20.5065L16.3646 21.0193L16.3647 21.0191L14.955 20.5065ZM20.955 4.0065L19.5463 3.49106L19.5453 3.49389L20.955 4.0065ZM19.9935 3.04425L20.5061 4.45394L20.5078 4.45331L19.9935 3.04425ZM3.49348 9.04425L2.98086 7.63456L2.97967 7.63499L3.49348 9.04425ZM2.99998 9.738H1.49998L4.4998 9.76114L2.99998 9.738ZM1.50018 9.71278C1.49274 10.1689 1.6241 10.6165 1.87685 10.9962L4.37422 9.33392C4.45847 9.46049 4.50226 9.60969 4.49978 9.76172L1.50018 9.71278ZM1.87685 10.9962C2.1296 11.3759 2.4918 11.6699 2.91543 11.839L4.02803 9.05297C4.16924 9.10936 4.28997 9.20734 4.37422 9.33392L1.87685 10.9962ZM2.91457 11.8387L10.1153 14.7194L11.2296 11.9341L4.02889 9.05332L2.91457 11.8387ZM9.27977 13.8839L12.1605 21.0854L14.9459 19.9711L12.0652 12.7696L9.27977 13.8839ZM12.1603 21.0847C12.3272 21.5026 12.6156 21.8608 12.9882 22.1131L14.6702 19.629C14.7944 19.7131 14.8905 19.8325 14.9462 19.9718L12.1603 21.0847ZM12.9882 22.1131C13.3609 22.3654 13.8005 22.5002 14.2505 22.5L14.2494 19.5C14.3994 19.4999 14.546 19.5449 14.6702 19.629L12.9882 22.1131ZM14.25 22.5H14.262V19.5H14.25V22.5ZM14.2856 22.4998C14.7413 22.4926 15.1841 22.3472 15.5553 22.0829L13.8151 19.6392C13.9389 19.551 14.0865 19.5026 14.2384 19.5002L14.2856 22.4998ZM15.5553 22.0829C15.9266 21.8185 16.2088 21.4476 16.3646 21.0193L13.5454 19.9937C13.5973 19.8509 13.6914 19.7273 13.8151 19.6392L15.5553 22.0829ZM16.3647 21.0191L22.3647 4.51912L19.5453 3.49389L13.5453 19.9939L16.3647 21.0191ZM22.3636 4.52194C22.511 4.11924 22.5402 3.68283 22.4478 3.2641L19.5183 3.91034C19.4875 3.77077 19.4972 3.6253 19.5463 3.49106L22.3636 4.52194ZM22.4478 3.2641C22.3555 2.84536 22.1454 2.46174 21.8423 2.15841L19.7201 4.2789C19.6191 4.1778 19.549 4.04992 19.5183 3.91034L22.4478 3.2641ZM21.8423 2.15841C21.5392 1.85509 21.1557 1.64468 20.737 1.55198L20.0885 4.48105C19.949 4.45015 19.8211 4.38001 19.7201 4.2789L21.8423 2.15841ZM20.737 1.55198C20.3184 1.45929 19.8819 1.48816 19.4791 1.63519L20.5078 4.45331C20.3736 4.50232 20.2281 4.51195 20.0885 4.48105L20.737 1.55198ZM19.4809 1.63456L2.98086 7.63456L4.00609 10.4539L20.5061 4.45394L19.4809 1.63456ZM2.97967 7.63499C2.55148 7.79111 2.18077 8.07354 1.91659 8.44493L4.36117 10.1839C4.27323 10.3075 4.14982 10.4015 4.00729 10.4535L2.97967 7.63499ZM1.91659 8.44493C1.6524 8.81631 1.50719 9.25915 1.50016 9.71486L4.4998 9.76114C4.49746 9.91284 4.44912 10.0603 4.36117 10.1839L1.91659 8.44493ZM4.49998 9.738V9.73725H1.49998V9.738H4.49998Z" fill="white" mask="url(#path-1-inside-1_168_4014)" stroke="white"/>
</svg>
