<svg width="24" height="24" viewBox="0 0 24 24" fill="none" xmlns="http://www.w3.org/2000/svg">
<path fill-rule="evenodd" clip-rule="evenodd" d="M1 4.57143C1 4.15466 1.16556 3.75496 1.46026 3.46026C1.75496 3.16556 2.15466 3 2.57143 3H21.4286C21.8453 3 22.245 3.16556 22.5397 3.46026C22.8344 3.75496 23 4.15466 23 4.57143C23 4.9882 22.8344 5.3879 22.5397 5.6826C22.245 5.9773 21.8453 6.14286 21.4286 6.14286H2.57143C2.15466 6.14286 1.75496 5.9773 1.46026 5.6826C1.16556 5.3879 1 4.9882 1 4.57143ZM1 12.4286C1 12.0118 1.16556 11.6121 1.46026 11.3174C1.75496 11.0227 2.15466 10.8571 2.57143 10.8571H21.4286C21.8453 10.8571 22.245 11.0227 22.5397 11.3174C22.8344 11.6121 23 12.0118 23 12.4286C23 12.8453 22.8344 13.245 22.5397 13.5397C22.245 13.8344 21.8453 14 21.4286 14H2.57143C2.15466 14 1.75496 13.8344 1.46026 13.5397C1.16556 13.245 1 12.8453 1 12.4286ZM1 20.2857C1 19.8689 1.16556 19.4692 1.46026 19.1745C1.75496 18.8798 2.15466 18.7143 2.57143 18.7143H12C12.4168 18.7143 12.8165 18.8798 13.1112 19.1745C13.4059 19.4692 13.5714 19.8689 13.5714 20.2857C13.5714 20.7025 13.4059 21.1022 13.1112 21.3969C12.8165 21.6916 12.4168 21.8571 12 21.8571H2.57143C2.15466 21.8571 1.75496 21.6916 1.46026 21.3969C1.16556 21.1022 1 20.7025 1 20.2857Z" fill="currentColor"/>
</svg>
