<svg width="24" height="24" viewBox="0 0 24 24" fill="currentColor" xmlns="http://www.w3.org/2000/svg">
<path d="M18 4.875V6H18.75C19.7446 6 20.6984 6.39509 21.4016 7.09835C22.1049 7.80161 22.5 8.75544 22.5 9.75V15.375C22.5 16.0712 22.2234 16.7389 21.7312 17.2312C21.2389 17.7234 20.5712 18 19.875 18H18.75V19.125C18.75 19.8212 18.4734 20.4889 17.9812 20.9812C17.4889 21.4734 16.8212 21.75 16.125 21.75H7.875C7.17881 21.75 6.51113 21.4734 6.01884 20.9812C5.52656 20.4889 5.25 19.8212 5.25 19.125V18H4.125C3.42881 18 2.76113 17.7234 2.26884 17.2312C1.77656 16.7389 1.5 16.0712 1.5 15.375V9.75C1.5 8.75544 1.89509 7.80161 2.59835 7.09835C3.30161 6.39509 4.25544 6 5.25 6H6V4.875C6 4.17881 6.27656 3.51113 6.76884 3.01884C7.26113 2.52656 7.92881 2.25 8.625 2.25H15.375C16.0712 2.25 16.7389 2.52656 17.2312 3.01884C17.7234 3.51113 18 4.17881 18 4.875ZM7.5 4.875V6H16.5V4.875C16.5 4.57663 16.3815 4.29048 16.1705 4.0795C15.9595 3.86853 15.6734 3.75 15.375 3.75H8.625C8.32663 3.75 8.04048 3.86853 7.8295 4.0795C7.61853 4.29048 7.5 4.57663 7.5 4.875ZM6.75 19.125C6.75 19.4234 6.86853 19.7095 7.0795 19.9205C7.29048 20.1315 7.57663 20.25 7.875 20.25H16.125C16.4234 20.25 16.7095 20.1315 16.9205 19.9205C17.1315 19.7095 17.25 19.4234 17.25 19.125V14.625C17.25 14.3266 17.1315 14.0405 16.9205 13.8295C16.7095 13.6185 16.4234 13.5 16.125 13.5H7.875C7.57663 13.5 7.29048 13.6185 7.0795 13.8295C6.86853 14.0405 6.75 14.3266 6.75 14.625V19.125ZM18.75 16.5H19.875C20.1734 16.5 20.4595 16.3815 20.6705 16.1705C20.8815 15.9595 21 15.6734 21 15.375V9.75C21 9.15326 20.7629 8.58097 20.341 8.15901C19.919 7.73705 19.3467 7.5 18.75 7.5H5.25C4.65326 7.5 4.08097 7.73705 3.65901 8.15901C3.23705 8.58097 3 9.15326 3 9.75V15.375C3 15.6734 3.11853 15.9595 3.3295 16.1705C3.54048 16.3815 3.82663 16.5 4.125 16.5H5.25V14.625C5.25 13.9288 5.52656 13.2611 6.01884 12.7688C6.51113 12.2766 7.17881 12 7.875 12H16.125C16.8212 12 17.4889 12.2766 17.9812 12.7688C18.4734 13.2611 18.75 13.9288 18.75 14.625V16.5Z" fill="currentColor"/>
</svg>
