<svg width="24" height="24" viewBox="0 0 24 24" fill="none" xmlns="http://www.w3.org/2000/svg">
<path d="M18.78 5.22C17.3231 3.75868 15.4342 2.80567 13.3932 2.50223C11.3521 2.19879 9.26762 2.56106 7.44865 3.53536C5.62968 4.50966 4.17304 6.04413 3.29466 7.9113C2.41627 9.77848 2.16289 11.879 2.57206 13.9015C2.98124 15.924 4.0312 17.7608 5.5663 19.1397C7.10141 20.5186 9.03996 21.3662 11.0946 21.5568C13.1493 21.7474 15.2106 21.2709 16.9732 20.198C18.7358 19.125 20.1057 17.5127 20.88 15.6H18.216C17.4743 16.91 16.3406 17.9547 14.9744 18.5869C13.6082 19.2192 12.0781 19.4073 10.5994 19.1248C9.12071 18.8423 7.76776 18.1034 6.73082 17.012C5.69388 15.9207 5.02511 14.5317 4.81858 13.0405C4.61204 11.5493 4.87812 10.0309 5.57939 8.69873C6.28067 7.36661 7.38186 6.28781 8.72811 5.61404C10.0744 4.94028 11.5979 4.70545 13.0846 4.94258C14.5712 5.1797 15.9462 5.87686 17.016 6.936L13.2 10.8H21.6V2.4L18.78 5.22Z" fill="currentColor"/>
</svg>
