<svg width="24" height="24" viewBox="0 0 24 24" fill="none" xmlns="http://www.w3.org/2000/svg">
<path d="M14 2H6C4.9 2 4 2.9 4 4V20C4 21.1 4.9 22 6 22H18C19.1 22 20 21.1 20 20V8L14 2ZM18 20H6V4H13L18 9V20ZM17 13.24C17 15.86 14.87 18 12.24 18C10.29 18 8.61 16.82 7.88 15.14H9.5C10.11 16 11.11 16.57 12.24 16.57C14.08 16.57 15.57 15.07 15.57 13.24C15.57 11.41 14.08 9.9 12.24 9.9C10.95 9.9 9.86 10.65 9.29 11.71L10.81 13.24H7V9.43L8.24 10.67C8.6694 10.0001 9.26139 9.44979 9.96081 9.07036C10.6602 8.69093 11.4443 8.49471 12.24 8.5C14.87 8.47 17 10.61 17 13.24Z" fill="currentColor"/>
</svg>
