<svg width="24" height="24" viewBox="0 0 24 24" fill="none" xmlns="http://www.w3.org/2000/svg">
<path d="M6.29298 4.293C6.48051 4.10553 6.73482 4.00021 6.99998 4.00021C7.26514 4.00021 7.51945 4.10553 7.70698 4.293L11.707 8.293C11.8891 8.4816 11.9899 8.7342 11.9877 8.9964C11.9854 9.2586 11.8802 9.50941 11.6948 9.69482C11.5094 9.88023 11.2586 9.9854 10.9964 9.98767C10.7342 9.98995 10.4816 9.88916 10.293 9.707L7.99998 7.414V19C7.99998 19.2652 7.89462 19.5196 7.70709 19.7071C7.51955 19.8946 7.2652 20 6.99998 20C6.73476 20 6.48041 19.8946 6.29287 19.7071C6.10534 19.5196 5.99998 19.2652 5.99998 19V7.414L3.70698 9.707C3.51838 9.88916 3.26578 9.98995 3.00358 9.98767C2.74138 9.9854 2.49057 9.88023 2.30516 9.69482C2.11975 9.50941 2.01458 9.2586 2.01231 8.9964C2.01003 8.7342 2.11082 8.4816 2.29298 8.293L6.29298 4.293ZM16 16.586V5C16 4.73478 16.1053 4.48043 16.2929 4.29289C16.4804 4.10536 16.7348 4 17 4C17.2652 4 17.5196 4.10536 17.7071 4.29289C17.8946 4.48043 18 4.73478 18 5V16.586L20.293 14.293C20.4816 14.1108 20.7342 14.01 20.9964 14.0123C21.2586 14.0146 21.5094 14.1198 21.6948 14.3052C21.8802 14.4906 21.9854 14.7414 21.9877 15.0036C21.9899 15.2658 21.8891 15.5184 21.707 15.707L17.707 19.707C17.5195 19.8945 17.2651 19.9998 17 19.9998C16.7348 19.9998 16.4805 19.8945 16.293 19.707L12.293 15.707C12.1108 15.5184 12.01 15.2658 12.0123 15.0036C12.0146 14.7414 12.1198 14.4906 12.3052 14.3052C12.4906 14.1198 12.7414 14.0146 13.0036 14.0123C13.2658 14.01 13.5184 14.1108 13.707 14.293L16 16.586Z" fill="currentColor"/>
</svg>
