<svg width="24" height="24" viewBox="0 0 24 24" fill="currentColor" xmlns="http://www.w3.org/2000/svg">
<path d="M4 19V8V19ZM4 21C3.45 21 2.97933 20.8043 2.588 20.413C2.196 20.021 2 19.55 2 19V8C2 7.45 2.196 6.97933 2.588 6.588C2.97933 6.196 3.45 6 4 6H8V4C8 3.45 8.196 2.979 8.588 2.587C8.97933 2.19567 9.45 2 10 2H14C14.55 2 15.021 2.19567 15.413 2.587C15.8043 2.979 16 3.45 16 4V6H20C20.55 6 21.021 6.196 21.413 6.588C21.8043 6.97933 22 7.45 22 8V12.275C21.7 12.0583 21.3833 11.8707 21.05 11.712C20.7167 11.554 20.3667 11.4167 20 11.3V8H4V19H11.075C11.125 19.35 11.2 19.6917 11.3 20.025C11.4 20.3583 11.525 20.6833 11.675 21H4ZM10 6H14V4H10V6ZM18 23C16.6167 23 15.4377 22.5127 14.463 21.538C13.4877 20.5627 13 19.3833 13 18C13 16.6167 13.4877 15.4373 14.463 14.462C15.4377 13.4873 16.6167 13 18 13C19.3833 13 20.5627 13.4873 21.538 14.462C22.5127 15.4373 23 16.6167 23 18C23 19.3833 22.5127 20.5627 21.538 21.538C20.5627 22.5127 19.3833 23 18 23ZM19.65 20.35L20.35 19.65L18.5 17.8V15H17.5V18.2L19.65 20.35Z" fill="currentColor"/>
</svg>
